<?xml version="1.0" encoding="UTF-8"?>
<!-- Generator: Adobe Illustrator 16.0.4, SVG Export Plug-In . SVG Version: 6.00 Build 0)  -->
<!DOCTYPE svg PUBLIC "-//W3C//DTD SVG 1.1//EN" "http://www.w3.org/Graphics/SVG/1.1/DTD/svg11.dtd">
<svg version="1.1" id="Layer_2" xmlns="http://www.w3.org/2000/svg" xmlns:xlink="http://www.w3.org/1999/xlink" x="0px" y="0px" width="347.401px" height="124.725px" viewBox="0 0 347.401 124.725" enable-background="new 0 0 347.401 124.725" xml:space="preserve">
<path fill="#E30613" d="M160.886,0C72.031,0,0,27.921,0,62.363c0,34.441,72.031,62.361,160.886,62.361  c1.019,0,2.032-0.006,3.045-0.016C79.85,124.08,12.188,97.467,12.188,64.725c0-33.138,69.304-60,154.793-60  c65.361,0,121.244,15.704,143.941,37.907c0.749-0.158,1.517-0.283,2.296-0.384C291.628,17.676,231.584,0,160.886,0z"/>
<g>
	<path fill="#E30613" d="M109.554,104.324h8.196c2.844,0,4.266,1.052,4.266,3.159c0,1.228-0.598,2.194-1.721,2.772   c1.457,0.474,2.211,1.545,2.211,3.124c0,2.194-1.492,3.615-4.124,3.615h-8.828V104.324z M112.73,106.92v2.476h3.756   c1.492,0,2.211-0.227,2.211-1.299c0-0.982-0.702-1.192-2.211-1.192L112.73,106.92z M116.96,114.397   c1.491,0,2.211-0.157,2.211-1.316c0-1.07-0.702-1.456-2.211-1.456h-4.23v2.772H116.96z"/>
	<path fill="#E30613" d="M127.736,111.134c0,2.458,0.965,3.598,3.318,3.598c1.246,0,2.158-0.386,2.72-1.07   c0.579-0.703,0.614-1.491,0.614-2.527v-6.81h3.16v7.143c0,3.844-2.23,5.862-6.494,5.862c-4.265,0-6.477-2.035-6.477-5.862v-7.143   h3.159V111.134z"/>
	<path fill="#E30613" d="M140.444,104.324h3.177v12.671h-3.177V104.324z"/>
	<path fill="#E30613" d="M146.499,104.324h3.177v10.073h6.529v2.598h-9.706V104.324z"/>
	<path fill="#E30613" d="M168.77,105.147c1.86,1.019,2.931,2.985,2.931,5.512c0,2.527-1.071,4.493-2.931,5.513   c-1.404,0.771-2.966,0.823-4.913,0.823h-5.723v-12.671h5.723C165.804,104.324,167.366,104.375,168.77,105.147z M161.469,114.397   h2.458c2.93,0,4.44-1.352,4.44-3.791s-1.51-3.687-4.44-3.687h-2.458V114.397z"/>
	<path fill="#E30613" d="M173.877,104.324h3.177v12.671h-3.177V104.324z"/>
	<path fill="#E30613" d="M179.932,104.324h3.897l6.336,8.933v-8.933h3.054v12.671h-3.861l-6.388-9.021v9.021h-3.038V104.324z"/>
	<path fill="#E30613" d="M202.8,117.329c-2.035,0-3.826-0.613-5.053-1.58c-1.617-1.262-2.371-2.931-2.371-5.09   c0-4.019,2.933-6.668,7.6-6.668c4.02,0,6.757,1.983,7.126,4.72h-3.457c-0.581-1.421-1.79-2.122-3.669-2.122   c-2.526,0-4.105,1.544-4.105,4.07c0,2.527,1.579,4.054,4.105,4.054c1.772,0,3.145-0.807,3.721-2.053h-2.878v-2.596h6.246v6.931   h-2.404l-0.174-1.421C206.276,116.75,204.749,117.329,202.8,117.329z"/>
	<path fill="#E30613" d="M221.965,112.607c0,0.035,0,0.089,0,0.124c0,1.403,1.247,2.193,3.688,2.193   c1.877,0,2.897-0.579,2.897-1.562c0-0.967-0.792-1.193-2.492-1.369l-2.249-0.229c-3.228-0.333-4.79-1.421-4.79-3.562   c0-2.386,2.281-4.211,6.107-4.211c4.053,0,6.319,1.63,6.319,4.121c0,0.037,0,0.072,0,0.108h-3.163   c-0.139-1.264-1.175-1.896-3.105-1.896c-1.822,0-2.806,0.562-2.806,1.455c0,0.95,0.808,1.073,2.56,1.265l2.354,0.247   c3.194,0.352,4.721,1.492,4.721,3.719c0,2.793-2.28,4.319-6.739,4.319c-4.282,0-6.547-1.649-6.547-4.458c0-0.088,0-0.175,0-0.264   H221.965z"/>
	<path fill="#E30613" d="M237.483,111.134c0,2.458,0.965,3.598,3.317,3.598c1.244,0,2.158-0.386,2.72-1.07   c0.578-0.703,0.614-1.491,0.614-2.527v-6.81h3.158v7.143c0,3.844-2.227,5.862-6.492,5.862c-4.268,0-6.479-2.035-6.479-5.862v-7.143   h3.161V111.134z"/>
	<path fill="#E30613" d="M250.153,104.324h7.512c2.966,0,4.688,1.632,4.688,4.317s-1.722,4.368-4.688,4.368h-4.335v3.985h-3.177   V104.324z M256.244,110.414c1.967,0,2.895-0.334,2.895-1.719c0-1.458-0.806-1.775-2.685-1.775h-3.124v3.494H256.244z"/>
	<path fill="#E30613" d="M264.248,104.324h7.51c2.97,0,4.688,1.632,4.688,4.317s-1.719,4.368-4.688,4.368h-4.335v3.985h-3.175   V104.324z M270.336,110.414c1.967,0,2.897-0.334,2.897-1.719c0-1.458-0.807-1.775-2.686-1.775h-3.126v3.494H270.336z"/>
	<path fill="#E30613" d="M278.341,104.324h3.178v10.073h6.529v2.598h-9.707V104.324z"/>
	<path fill="#E30613" d="M290.011,104.324h3.18v12.671h-3.18V104.324z"/>
	<path fill="#E30613" d="M296.066,104.324h11.251v2.596h-8.073v2.108h7.197v2.597h-7.197v2.772h8.073v2.598h-11.251V104.324z"/>
	<path fill="#E30613" d="M312.108,112.607c0,0.035,0,0.089,0,0.124c0,1.403,1.248,2.193,3.688,2.193   c1.877,0,2.896-0.579,2.896-1.562c0-0.967-0.791-1.193-2.492-1.369l-2.248-0.229c-3.229-0.333-4.789-1.421-4.789-3.562   c0-2.386,2.281-4.211,6.106-4.211c4.055,0,6.319,1.63,6.319,4.121c0,0.037,0,0.072,0,0.108h-3.161   c-0.141-1.264-1.176-1.896-3.106-1.896c-1.823,0-2.807,0.562-2.807,1.455c0,0.95,0.807,1.073,2.562,1.265l2.352,0.247   c3.195,0.352,4.721,1.492,4.721,3.719c0,2.793-2.28,4.319-6.739,4.319c-4.282,0-6.546-1.649-6.546-4.458c0-0.088,0-0.175,0-0.264   H312.108z"/>
</g>
<g>
	<path fill="#00497F" d="M93.317,36.269c0,0-0.035-7.419,7.29-7.419c7.921,0,7.921,7.419,7.921,7.419v9.803c0,0,3.269,0,4.274,0   s7.548,0.033,7.548,7.202c0,6.846-8.301,6.753-8.301,6.753h-3.521v29.292c0,0,0.162,8.574-7.418,8.574   c-8.005,0-7.918-8.324-7.918-8.324V59.647h-2.515c0,0-7.039,0.128-7.039-6.662c0-7.734,7.794-6.914,7.794-6.914h1.885   C93.317,46.071,93.317,36.913,93.317,36.269z"/>
	<path fill="#00497F" d="M143.785,59.266c0,0,10.164-0.316,10.164,12.198c0,0,0.43,12.948-10.164,12.948   c-9.95,0-10.27-10.811-10.27-12.948C133.515,69.538,134.369,59.266,143.785,59.266z M118.542,72.552   c0,15.957,12.618,26.41,23.171,26.41c3.997,0,9.134-0.962,12.771-5.881c0,0,1.39,4.706,7.169,4.706   c5.794,0,7.275-4.602,7.275-6.632c0-2.038,0-38.738,0-38.738s-0.144-6.862-7.368-6.862c-3.866,0-6.242,3.01-6.971,4.727   c0,0-3.969-5.645-13.05-5.645C126.169,44.637,118.542,60.229,118.542,72.552z"/>
	<path fill="#00497F" d="M189.688,50.281c0,0-1.607-4.71-7.49-4.71c-5.885,0-7.486,5.244-7.486,6.846c0,1.606,0,36.384,0,37.985   c0,2.783,1.812,7.385,7.486,7.385c5.67,0,7.383-5.03,7.383-7.273c0-2.252,0.107-22.688,0.107-24.506   c0-2.678,1.282-8.665,7.489-8.665c6.308,0,7.38,6.099,7.38,7.595c0,1.498,0,24.822,0,25.895c0,1.069,1.394,6.955,7.704,6.955   c6.314,0,7.384-5.777,7.384-7.06c0,0,0-23.756,0-25.148s0.747-8.346,7.491-8.346c6.205,0,7.383,6.097,7.383,7.92   c0,1.818,0.106,24.718,0.106,26.106c0,1.393,2.138,6.633,7.597,6.633c5.456,0,7.276-4.707,7.276-6.633c0-1.927,0-28.889,0-30.925   c0-2.03-1.177-15.725-18.398-15.725c-7.603,0-12.363,4.227-14.503,6.368c0,0-4.654-6.368-14.07-6.368   C193.113,44.61,189.688,50.281,189.688,50.281z"/>
	<path fill="#00497F" d="M253.565,71.464c0,13.588,7.618,26.858,24.596,27.498c9.025,0.343,18.415-4.692,18.415-10.271   c0-3.423-2.459-6.682-6.099-6.682c-3.956,0-4.815,2.51-11.019,2.51c-8.777,0-10.913-7.812-10.913-13.056   s2.352-12.302,12.087-12.302c4.603,0,6.776,3.011,10.166,2.567c4.074-0.537,5.777-3.522,5.777-6.955   c0-4.614-4.814-10.147-17.548-10.147C262.553,44.627,253.565,57.552,253.565,71.464z"/>
	<path fill="#00497F" d="M322.257,59.266c3.42,0,10.163,2.354,10.163,12.306c0,9.953-5.459,12.841-10.163,12.841   c-4.711,0-10.273-3.744-10.273-12.841C311.984,62.478,317.871,59.266,322.257,59.266z M297.042,71.357   c0,17.976,11.947,27.565,25.003,27.565c14.339,0,25.356-10.338,25.356-27.459c0-17.762-12.736-26.854-25.144-26.854   C309.736,44.61,297.042,54.023,297.042,71.357z"/>
	<path fill="#00497F" d="M67.873,79.016c-2.454,5.939-9.22,4.553-14.506,3.367c-5.639-1.27-12.99-6.829-16.716,1.881   c-2.659,6.222,2.734,10.021,5.784,11.368c6.302,2.771,16.922,5.562,28.992,1.219c11.227-4.04,13.575-13.828,13.575-21.153   c0-8.424-4.188-15.531-15.884-19.413c-11.577-3.838-16.785-4.28-14.729-10.394c0.998-2.966,4.834-3.765,9.29-3.359   c4.598,0.418,10.759,6.306,16.487-0.953c2.734-3.461-0.025-10.259-7.494-12.747c-7.719-2.569-19.391-1.706-25.521,2.109   c-9.924,6.172-11.191,17.82-9.394,24.316c1.796,6.49,7.182,9.942,16.16,12.707C62.897,70.724,70.356,72.992,67.873,79.016z"/>
</g>
</svg>